<svg width="48" height="48" viewBox="0 0 48 48" fill="none" xmlns="http://www.w3.org/2000/svg">
<g clip-path="url(#clip0_13594_69815)">
<path d="M43 24C43 34.4934 34.4934 43 24 43C13.5066 43 5 34.4934 5 24C5 13.5066 13.5066 5 24 5C34.4934 5 43 13.5066 43 24Z" stroke="black" stroke-width="2"/>
<path d="M10.8335 14C10.8335 11.7909 12.6244 10 14.8335 10H33.1668C35.376 10 37.1668 11.7909 37.1668 14V34C37.1668 36.2092 35.376 38 33.1668 38H14.8335C12.6244 38 10.8335 36.2092 10.8335 34V14Z" stroke="black" stroke-width="2"/>
<mask id="path-3-inside-1_13594_69815" fill="white">
<path fill-rule="evenodd" clip-rule="evenodd" d="M38.1668 9.83334L26.7503 36.0243C25.7034 38.426 22.297 38.426 21.2501 36.0243L9.8335 9.83334"/>
</mask>
<path d="M26.7503 36.0243L24.9169 35.2251L26.7503 36.0243ZM36.3334 9.03417L24.9169 35.2251L28.5836 36.8235L40.0002 10.6325L36.3334 9.03417ZM23.0835 35.2251L11.6669 9.03417L8.0001 10.6325L19.4167 36.8235L23.0835 35.2251ZM24.9169 35.2251C24.5679 36.0257 23.4324 36.0257 23.0835 35.2251L19.4167 36.8235C21.1615 40.8263 26.8389 40.8262 28.5836 36.8235L24.9169 35.2251Z" fill="black" mask="url(#path-3-inside-1_13594_69815)"/>
</g>
<defs>
<clipPath id="clip0_13594_69815">
<rect width="40" height="40" fill="white" transform="translate(4 4)"/>
</clipPath>
</defs>
</svg>
